<svg width="15" height="15" viewBox="0 0 15 15" fill="none" xmlns="http://www.w3.org/2000/svg">
<path d="M11.625 1.3125C12.3125 1.3125 12.875 1.875 12.875 2.5625V3.9375C12.875 4.4375 12.5625 5.0625 12.25 5.375L9.5625 7.75C9.1875 8.0625 8.9375 8.6875 8.9375 9.1875V11.875C8.9375 12.25 8.6875 12.75 8.375 12.9375L7.5 13.5C6.6875 14 5.5625 13.4375 5.5625 12.4375V9.125C5.5625 8.6875 5.3125 8.125 5.0625 7.8125L2.6875 5.3125C2.375 5 2.125 4.4375 2.125 4.0625V2.625C2.125 1.875 2.6875 1.3125 3.375 1.3125H9" stroke="#6b7280" stroke-width="1.5" stroke-miterlimit="10" stroke-linecap="round" stroke-linejoin="round"/>
<path d="M6.83125 1.3125L3.75 6.25" stroke="#6b7280" stroke-width="1.5" stroke-miterlimit="10" stroke-linecap="round" stroke-linejoin="round"/>
</svg>