<svg width="30" height="37" viewBox="0 0 30 37" fill="none" xmlns="http://www.w3.org/2000/svg">
<g opacity="0.3">
<path opacity="0.3" d="M20.6389 8.04389C19.8309 8.04349 19.0561 7.72235 18.4847 7.15101C17.9134 6.57968 17.5923 5.80489 17.5919 4.9969V0.767761H3.97648C3.45416 0.767761 2.93696 0.870658 2.45442 1.07059C1.97187 1.27051 1.53341 1.56355 1.16415 1.93295C0.79488 2.30236 0.502032 2.7409 0.302284 3.22351C0.102535 3.70613 -0.000193824 4.22338 2.74537e-07 4.7457V28.7152C-0.000193824 29.2376 0.102535 29.7548 0.302284 30.2374C0.502032 30.72 0.79488 31.1586 1.16415 31.528C1.53341 31.8974 1.97187 32.1904 2.45442 32.3903C2.93696 32.5903 3.45416 32.6932 3.97648 32.6932H20.3197C20.842 32.6932 21.3592 32.5903 21.8417 32.3903C22.3243 32.1904 22.7627 31.8974 23.132 31.528C23.5012 31.1586 23.7941 30.72 23.9939 30.2374C24.1936 29.7548 24.2963 29.2376 24.2961 28.7152V8.04536L20.6389 8.04389Z" fill="#00C650"/>
</g>
<path d="M24.2962 8.04389H20.6389C19.8309 8.04349 19.0561 7.72235 18.4848 7.15101C17.9135 6.57968 17.5923 5.80489 17.5919 4.9969V0.767761L24.2962 8.04389Z" fill="#00C650"/>
<path d="M27.1806 25.977H8.70362C7.39295 25.977 6.33044 27.0395 6.33044 28.3502V33.859C6.33044 35.1696 7.39295 36.2321 8.70362 36.2321H27.1806C28.4913 36.2321 29.5537 35.1696 29.5537 33.859V28.3502C29.5537 27.0395 28.4913 25.977 27.1806 25.977Z" fill="#00C650"/>
<path d="M12.4449 32.2971V33.3729H11.3323V32.2971H12.4449Z" fill="white"/>
<path d="M15.7475 28.9294V31.9646C15.7475 32.4305 15.6209 32.7886 15.3678 33.0388C15.2264 33.1692 15.0603 33.2697 14.8793 33.3344C14.6983 33.3991 14.5061 33.4268 14.3142 33.4156C14.104 33.4269 13.8936 33.3964 13.6953 33.3259C13.4969 33.2554 13.3145 33.1463 13.1586 33.0049C12.8739 32.73 12.7311 32.336 12.7301 31.8227H13.7926C13.7926 32.2379 13.9507 32.4448 14.2639 32.4448C14.5373 32.4448 14.6732 32.2852 14.6732 31.9675V28.9323L15.7475 28.9294Z" fill="white"/>
<path d="M17.5298 31.8138V33.3728H16.4556V28.9294H18.1963C18.7233 28.9294 19.1252 29.0599 19.4021 29.321C19.5422 29.4582 19.6516 29.6236 19.7231 29.8063C19.7947 29.9889 19.8268 30.1846 19.8173 30.3805C19.8213 30.6387 19.7577 30.8934 19.6326 31.1193C19.5039 31.3396 19.3126 31.5166 19.0829 31.6276C18.8062 31.759 18.5024 31.8228 18.1963 31.8138H17.5298ZM18.7238 30.3805C18.7238 29.9864 18.5081 29.7894 18.0766 29.7894H17.5298V30.9464H18.0766C18.5081 30.9504 18.7238 30.7617 18.7238 30.3805Z" fill="white"/>
<path d="M23.8025 29.287C24.1602 29.5561 24.4009 29.9523 24.4748 30.3938H23.337C23.26 30.2392 23.1385 30.1111 22.9883 30.0259C22.819 29.9254 22.625 29.8742 22.4282 29.8781C22.2754 29.8719 22.1231 29.8994 21.9822 29.9586C21.8412 30.0179 21.715 30.1074 21.6125 30.2209C21.3958 30.4794 21.2854 30.8106 21.3037 31.1474C21.3037 31.5701 21.4116 31.8947 21.6273 32.1213C21.7486 32.2389 21.8932 32.3299 22.0517 32.3884C22.2102 32.4469 22.3792 32.4717 22.5479 32.4611C22.789 32.4655 23.025 32.3913 23.2203 32.2498C23.4196 32.1009 23.5637 31.8898 23.6296 31.6499H22.2716V30.877H24.528V31.9395C24.4418 32.204 24.3053 32.4493 24.1261 32.6621C23.9319 32.8913 23.6905 33.0758 23.4182 33.2029C23.1105 33.3451 22.7746 33.4158 22.4356 33.4098C22.0233 33.4206 21.6155 33.3222 21.2535 33.1246C20.9223 32.9383 20.6527 32.6595 20.4777 32.3222C20.2896 31.957 20.1957 31.5507 20.2043 31.1401C20.1969 30.7319 20.2908 30.3283 20.4777 29.9653C20.6524 29.6288 20.9208 29.3501 21.2505 29.1629C21.6072 28.9668 22.0094 28.8684 22.4164 28.8777C22.9111 28.8562 23.3988 29.0002 23.8025 29.287Z" fill="white"/>
<path d="M15.4124 22.4025H8.88546C8.2465 22.4017 7.63393 22.1476 7.18211 21.6957C6.7303 21.2439 6.47612 20.6314 6.47534 19.9924V13.4655C6.47612 12.8265 6.7303 12.2139 7.18211 11.7621C7.63393 11.3103 8.2465 11.0561 8.88546 11.0554H15.4124C16.0512 11.0561 16.6636 11.3104 17.1152 11.7622C17.5668 12.2141 17.8206 12.8266 17.821 13.4655V19.9924C17.8206 20.6312 17.5668 21.2438 17.1152 21.6957C16.6636 22.1475 16.0512 22.4017 15.4124 22.4025ZM8.88546 12.1208C8.52894 12.1212 8.18712 12.263 7.93503 12.5151C7.68293 12.7672 7.54114 13.109 7.54075 13.4655V19.9924C7.54114 20.3489 7.68293 20.6907 7.93503 20.9428C8.18712 21.1949 8.52894 21.3367 8.88546 21.3371H15.4124C15.7688 21.3367 16.1104 21.1949 16.3623 20.9427C16.6141 20.6906 16.7556 20.3488 16.7556 19.9924V13.4655C16.7556 13.1091 16.6141 12.7673 16.3623 12.5152C16.1104 12.263 15.7688 12.1212 15.4124 12.1208H8.88546Z" fill="#00C650"/>
<path d="M17.289 18.7511V19.9924C17.2886 20.49 17.0908 20.9671 16.7389 21.319C16.3871 21.6708 15.91 21.8687 15.4124 21.8691H8.88544C8.38772 21.8691 7.91039 21.6713 7.55845 21.3194C7.20651 20.9674 7.00879 20.4901 7.00879 19.9924V17.9089C8.05351 17.6842 9.64497 17.6133 11.5763 18.3847L12.7732 17.2439L13.5889 19.3127C13.5889 19.3127 13.8076 18.5516 14.5139 18.6595C15.2203 18.7674 16.364 19.1501 16.8531 18.8235C16.9849 18.7475 17.1397 18.7218 17.289 18.7511Z" fill="#00C650"/>
<path d="M15.003 14.7983C15.4037 14.7983 15.7286 14.4735 15.7286 14.0728C15.7286 13.6721 15.4037 13.3472 15.003 13.3472C14.6023 13.3472 14.2775 13.6721 14.2775 14.0728C14.2775 14.4735 14.6023 14.7983 15.003 14.7983Z" fill="#00C650"/>
</svg>