<svg width="30" height="37" viewBox="0 0 30 37" fill="none" xmlns="http://www.w3.org/2000/svg">
<g opacity="0.3">
<path opacity="0.3" d="M20.6362 8.0464C19.8285 8.04562 19.054 7.72439 18.4828 7.15323C17.9116 6.58208 17.5904 5.80764 17.5896 4.99991V0.77002H3.97595C2.92146 0.77002 1.91017 1.18891 1.16453 1.93451C0.418896 2.68012 0 3.69135 0 4.74579V28.7128C0.00156591 29.7662 0.421149 30.776 1.16662 31.5203C1.91208 32.2646 2.92248 32.6827 3.97595 32.6827H20.3186C21.372 32.6827 22.3824 32.2646 23.1279 31.5203C23.8734 30.776 24.293 29.7662 24.2945 28.7128V8.0464H20.6362Z" fill="#FF3E4C"/>
</g>
<path d="M24.2944 8.0464H20.6361C19.8283 8.04562 19.0538 7.72439 18.4827 7.15323C17.9115 6.58208 17.5903 5.80764 17.5895 4.99991V0.77002L24.2944 8.0464Z" fill="#FF3E4C"/>
<path d="M19.2962 23.0556H4.04247C3.89552 23.0556 3.75459 22.9973 3.65068 22.8934C3.54677 22.7895 3.4884 22.6485 3.4884 22.5016C3.48879 22.3549 3.54734 22.2144 3.6512 22.1108C3.75507 22.0072 3.89577 21.949 4.04247 21.949H19.2962C19.4427 21.949 19.5833 22.0072 19.6869 22.1108C19.7905 22.2145 19.8488 22.355 19.8488 22.5016C19.849 22.5743 19.8348 22.6463 19.8071 22.7135C19.7794 22.7807 19.7388 22.8418 19.6874 22.8932C19.6361 22.9447 19.5751 22.9856 19.508 23.0134C19.4408 23.0413 19.3689 23.0556 19.2962 23.0556Z" fill="#FF3E4C"/>
<path d="M19.2962 16.815H4.04247C3.89577 16.815 3.75507 16.7568 3.6512 16.6532C3.54734 16.5496 3.48879 16.4091 3.4884 16.2624C3.4884 16.1155 3.54677 15.9745 3.65068 15.8706C3.75459 15.7667 3.89552 15.7084 4.04247 15.7084H19.2962C19.3689 15.7084 19.4408 15.7227 19.508 15.7506C19.5751 15.7784 19.6361 15.8193 19.6874 15.8707C19.7388 15.9222 19.7794 15.9833 19.8071 16.0505C19.8348 16.1177 19.849 16.1897 19.8488 16.2624C19.8488 16.409 19.7905 16.5495 19.6869 16.6531C19.5833 16.7568 19.4427 16.815 19.2962 16.815Z" fill="#FF3E4C"/>
<path d="M19.2962 19.9353H4.04247C3.89552 19.9353 3.75459 19.8769 3.65068 19.773C3.54677 19.6691 3.4884 19.5282 3.4884 19.3812C3.48879 19.2346 3.54734 19.094 3.6512 18.9904C3.75507 18.8868 3.89577 18.8287 4.04247 18.8287H19.2962C19.4427 18.8287 19.5833 18.8869 19.6869 18.9905C19.7905 19.0941 19.8488 19.2347 19.8488 19.3812C19.849 19.4539 19.8348 19.5259 19.8071 19.5931C19.7794 19.6604 19.7388 19.7215 19.6874 19.7729C19.6361 19.8244 19.5751 19.8652 19.508 19.8931C19.4408 19.9209 19.3689 19.9353 19.2962 19.9353Z" fill="#FF3E4C"/>
<path d="M13.2798 13.6946H4.04247C3.89577 13.6946 3.75507 13.6365 3.6512 13.5329C3.54734 13.4293 3.48879 13.2887 3.4884 13.1421C3.4884 12.9951 3.54677 12.8542 3.65068 12.7503C3.75459 12.6464 3.89552 12.588 4.04247 12.588H13.2798C13.4265 12.5884 13.567 12.6469 13.6706 12.7508C13.7742 12.8547 13.8324 12.9954 13.8324 13.1421C13.832 13.2885 13.7736 13.4288 13.6701 13.5323C13.5666 13.6359 13.4262 13.6942 13.2798 13.6946Z" fill="#FF3E4C"/>
<path d="M13.2798 10.5743H4.04247C3.89577 10.5743 3.75507 10.5161 3.6512 10.4125C3.54734 10.309 3.48879 10.1684 3.4884 10.0218C3.4884 9.87481 3.54677 9.73386 3.65068 9.62996C3.75459 9.52605 3.89552 9.46771 4.04247 9.46771H13.2798C13.4265 9.4681 13.567 9.52664 13.6706 9.6305C13.7742 9.73436 13.8324 9.87507 13.8324 10.0218C13.832 10.1682 13.7736 10.3085 13.6701 10.412C13.5666 10.5156 13.4262 10.5739 13.2798 10.5743Z" fill="#FF3E4C"/>
<path d="M27.177 25.9766H8.70233C7.39184 25.9766 6.32947 27.0389 6.32947 28.3493V33.8572C6.32947 35.1677 7.39184 36.23 8.70233 36.23H27.177C28.4875 36.23 29.5499 35.1677 29.5499 33.8572V28.3493C29.5499 27.0389 28.4875 25.9766 27.177 25.9766Z" fill="#FF3E4C"/>
<path d="M12.3904 32.2955V33.3696H11.2793V32.2955H12.3904Z" fill="white"/>
<path d="M14.0243 31.811V33.3696H12.9502V28.927H14.6907C15.2182 28.927 15.6215 29.0585 15.8978 29.32C16.0376 29.4574 16.1468 29.6228 16.2181 29.8053C16.2894 29.9879 16.3212 30.1835 16.3115 30.3793C16.3169 30.6376 16.2531 30.8926 16.1268 31.118C15.9978 31.3384 15.8066 31.5157 15.5772 31.6278C15.3005 31.7586 14.9966 31.8218 14.6907 31.8124L14.0243 31.811ZM15.2182 30.3793C15.2182 29.9853 15.0024 29.7883 14.571 29.7883H14.0243V30.9452H14.571C15.0024 30.9491 15.2182 30.7605 15.2182 30.3793Z" fill="white"/>
<path d="M20.5566 32.2985C20.3716 32.6345 20.0922 32.9088 19.7529 33.0875C19.371 33.2829 18.9465 33.3799 18.5177 33.3697H16.8407V28.927H18.5177C18.9468 28.9162 19.372 29.0111 19.7558 29.2033C20.0942 29.3782 20.3729 29.6497 20.5566 29.9834C20.7489 30.3376 20.8456 30.7358 20.8373 31.1388C20.8453 31.5431 20.7486 31.9426 20.5566 32.2985ZM19.4012 32.0754C19.5213 31.9522 19.6144 31.8052 19.6744 31.6439C19.7344 31.4826 19.7602 31.3106 19.7499 31.1388C19.7602 30.9672 19.7345 30.7953 19.6745 30.6342C19.6144 30.4732 19.5213 30.3265 19.4012 30.2035C19.1325 29.9677 18.7814 29.8477 18.4246 29.8696H17.9148V32.4079H18.4246C18.7811 32.4295 19.1319 32.3101 19.4012 32.0754Z" fill="white"/>
<path d="M24.3433 28.927V29.7824H22.5215V30.7561H23.9281V31.5731H22.5215V33.3696H21.4459V28.927H24.3433Z" fill="white"/>
<path d="M19.0257 9.46771H16.4134C15.9581 9.46771 15.589 9.83681 15.589 10.2921V12.9042C15.589 13.3595 15.9581 13.7286 16.4134 13.7286H19.0257C19.481 13.7286 19.8501 13.3595 19.8501 12.9042V10.2921C19.8501 9.83681 19.481 9.46771 19.0257 9.46771Z" fill="#FF3E4C"/>
</svg>