<svg width="121" height="107" viewBox="0 0 121 107" fill="none" xmlns="http://www.w3.org/2000/svg">
<path d="M56.2179 87.0958V82.3519V69.8013C56.2179 68.4683 55.1373 67.3877 53.8044 67.3877H3.80615C2.47317 67.3877 1.39258 68.4683 1.39258 69.8013V77.2417" stroke="#A6A9AD" stroke-width="1.44814" stroke-linecap="round"/>
<path d="M29.623 72.7256H6.30181" stroke="#CECFD2" stroke-width="2.41357" stroke-linecap="round"/>
<path d="M39.2559 77.6523L9.79745 77.6523" stroke="#CECFD2" stroke-width="2.41357" stroke-linecap="round"/>
<path d="M43.9434 82.5791L20.3787 82.5791" stroke="#CECFD2" stroke-width="2.41357" stroke-linecap="round"/>
<rect x="43.125" y="70.2617" width="8.59203" height="8.62229" rx="2.41357" fill="#D9D9D9"/>
<path d="M102.861 11.1099V18.5504C102.861 19.8834 101.78 20.9639 100.447 20.9639H50.4487C49.1158 20.9639 48.0352 19.8834 48.0352 18.5504V3.66944C48.0352 2.33646 49.1158 1.25586 50.4487 1.25586H54.5318" stroke="#A6A9AD" stroke-width="1.44814" stroke-linecap="round"/>
<path d="M96.8613 6.59375H58.6201" stroke="#CECFD2" stroke-width="2.41357" stroke-linecap="round"/>
<path d="M96.8613 11.5205L76.4179 11.5205" stroke="#CECFD2" stroke-width="2.41357" stroke-linecap="round"/>
<path d="M96.8613 16.4473L84.3548 16.4473" stroke="#CECFD2" stroke-width="2.41357" stroke-linecap="round"/>
<rect width="12.0467" height="5.78243" transform="matrix(0.705863 0.708348 -0.705863 0.708348 82.5508 64.2373)" fill="#A6A9AD"/>
<rect width="3.37308" height="5.78243" transform="matrix(0.705863 0.708348 -0.705863 0.708348 82.5508 64.2373)" fill="#74767C"/>
<path d="M87.9924 69.0169C88.3687 68.6392 88.9789 68.6392 89.3553 69.0169L117.58 97.3414C119.086 98.8521 119.086 101.301 117.58 102.812L116.91 103.485C115.404 104.996 112.963 104.996 111.458 103.485L83.2329 75.1608C82.8565 74.7831 82.8565 74.1708 83.2329 73.7931L87.9924 69.0169Z" fill="#74767C"/>
<path d="M87.6525 71.4055C88.0289 71.0279 88.6391 71.0279 89.0154 71.4055L116.395 98.8815C116.865 99.3528 116.865 100.117 116.395 100.588C115.925 101.059 115.164 101.059 114.694 100.588L87.3148 73.1122C86.9384 72.7345 86.9384 72.1222 87.3148 71.7445L87.6525 71.4055Z" fill="white"/>
<path fill-rule="evenodd" clip-rule="evenodd" d="M82.041 67.4786C69.3611 80.2031 48.8029 80.2031 36.123 67.4786C32.9713 64.3158 30.603 60.6645 29.018 56.7676H35.9154C37.1085 59.0233 38.6515 61.1414 40.5447 63.0413C50.7826 73.3152 67.3814 73.3152 77.6193 63.0413C87.8571 52.7674 87.8571 36.1101 77.6193 25.8362C67.3814 15.5623 50.7826 15.5623 40.5447 25.8362C38.2406 28.1484 36.455 30.784 35.1881 33.5973H28.4551C30.0173 29.1429 32.5733 24.9611 36.123 21.3989C48.8029 8.67433 69.3611 8.67433 82.041 21.3989C94.7209 34.1234 94.7209 54.754 82.041 67.4786Z" fill="#A6A9AD"/>
<path d="M41.3033 33.5977H17.5015C16.1685 33.5977 15.0879 34.6783 15.0879 36.0112V54.3544C15.0879 55.6874 16.1685 56.768 17.5015 56.768H46.354M54.5314 33.5977H77.1312C78.4641 33.5977 79.5447 34.6783 79.5447 36.0112V54.3544C79.5447 55.6874 78.4641 56.768 77.1312 56.768H71.8482" stroke="#A6A9AD" stroke-width="1.44814" stroke-linecap="round"/>
<path d="M65.115 38.4248L70.4062 43.7347M70.4062 38.4248L65.115 43.7347" stroke="#BD1313" stroke-width="2.41357" stroke-linecap="round"/>
<path d="M48.2793 39.873H20.8611" stroke="#CECFD2" stroke-width="2.41357" stroke-linecap="round"/>
<path d="M55.4941 45.666L20.8606 45.666" stroke="#CECFD2" stroke-width="2.41357" stroke-linecap="round"/>
<path d="M65.1133 51.458L20.8593 51.458" stroke="#CECFD2" stroke-width="2.41357" stroke-linecap="round"/>
</svg>