<svg width="30" height="37" viewBox="0 0 30 37" fill="none" xmlns="http://www.w3.org/2000/svg">
<g opacity="0.3">
<path opacity="0.3" d="M20.6362 8.0464C19.8283 8.04523 19.0539 7.72368 18.4827 7.15229C17.9116 6.5809 17.5904 5.80632 17.5896 4.99845V0.77002H3.97595C2.92146 0.77002 1.91017 1.18889 1.16453 1.93449C0.418896 2.6801 0 3.69137 0 4.74581V28.7128C0.00156591 29.7662 0.421149 30.776 1.16662 31.5203C1.91208 32.2646 2.92248 32.6827 3.97595 32.6827H20.3186C21.372 32.6827 22.3824 32.2646 23.1279 31.5203C23.8734 30.776 24.293 29.7662 24.2945 28.7128V8.0464H20.6362Z" fill="#FF3E4C"/>
</g>
<path d="M24.2945 8.0464H20.6362C19.8283 8.04523 19.0538 7.72368 18.4827 7.15229C17.9116 6.5809 17.5904 5.80632 17.5896 4.99845V0.77002L24.2945 8.0464Z" fill="#FF3E4C"/>
<path d="M27.1771 25.9766H8.70245C7.39196 25.9766 6.32959 27.0389 6.32959 28.3493V33.8572C6.32959 35.1677 7.39196 36.23 8.70245 36.23H27.1771C28.4876 36.23 29.55 35.1677 29.55 33.8572V28.3493C29.55 27.0389 28.4876 25.9766 27.1771 25.9766Z" fill="#FF3E4C"/>
<path d="M13.6447 32.2956V33.3697H12.5321V32.2956H13.6447Z" fill="white"/>
<path d="M15.3158 32.5024H17.2764V33.3697H14.1219V32.5526L16.0516 29.7884H14.1471V28.927H17.2646V29.744L15.3158 32.5024Z" fill="white"/>
<path d="M19.011 28.927V33.3697H17.9413V28.927H19.011Z" fill="white"/>
<path d="M20.8268 31.811V33.3697H19.7527V28.927H21.4873C22.0147 28.927 22.4181 29.057 22.6944 29.32C22.8343 29.4571 22.9436 29.6222 23.0151 29.8045C23.0867 29.9868 23.1189 30.1822 23.1096 30.3779C23.1142 30.6363 23.0499 30.8912 22.9234 31.1166C22.7944 31.3369 22.6032 31.5142 22.3738 31.6263C22.0968 31.7565 21.7932 31.8197 21.4873 31.811H20.8268ZM22.0206 30.3779C22.0206 29.9888 21.8049 29.7918 21.3735 29.7869H20.8268V30.9422H21.3735C21.8049 30.9472 22.0206 30.759 22.0206 30.3779Z" fill="white"/>
<path d="M12.1451 23.3039C11.6482 23.3032 11.1719 23.1053 10.8207 22.7538C10.4695 22.4024 10.272 21.9259 10.2716 21.4291V19.5542H14.02V21.4291C14.0196 21.9262 13.822 22.4029 13.4704 22.7544C13.1189 23.1059 12.6422 23.3035 12.1451 23.3039ZM11.2305 20.5131V21.4291C11.2305 21.6717 11.3268 21.9045 11.4983 22.0763C11.6698 22.248 11.9024 22.3447 12.1451 22.3451C12.3879 22.3447 12.6207 22.2481 12.7924 22.0764C12.9641 21.9047 13.0607 21.6719 13.0611 21.4291V20.5131H11.2305Z" fill="#FF3E4C"/>
<path d="M10.2702 19.5557H12.1495V17.6763H10.2702V19.5557Z" fill="#FF3E4C"/>
<path d="M12.145 17.6778H14.0244V15.7985H12.145V17.6778Z" fill="#FF3E4C"/>
<path d="M10.2702 15.8H12.1495V13.9207H10.2702V15.8Z" fill="#FF3E4C"/>
<path d="M12.145 13.9222H14.0244V12.0429H12.145V13.9222Z" fill="#FF3E4C"/>
</svg>